<svg width="884" height="24" viewBox="0 0 884 24" fill="none" xmlns="http://www.w3.org/2000/svg">
<path d="M282.465 19.1989C281.49 19.1989 280.619 19.0308 279.852 18.6946C279.089 18.3584 278.486 17.892 278.041 17.2955C277.6 16.6941 277.363 15.9981 277.33 15.2074H279.56C279.589 15.6383 279.733 16.0123 279.994 16.3295C280.259 16.642 280.604 16.8835 281.031 17.054C281.457 17.2244 281.93 17.3097 282.451 17.3097C283.024 17.3097 283.531 17.2102 283.971 17.0114C284.416 16.8125 284.764 16.5355 285.015 16.1804C285.266 15.8205 285.391 15.4062 285.391 14.9375C285.391 14.4498 285.266 14.0213 285.015 13.652C284.769 13.2779 284.407 12.9844 283.928 12.7713C283.455 12.5582 282.882 12.4517 282.21 12.4517H280.981V10.6619H282.21C282.749 10.6619 283.223 10.5649 283.63 10.3707C284.042 10.1766 284.364 9.90672 284.596 9.56108C284.828 9.2107 284.944 8.80114 284.944 8.33239C284.944 7.88258 284.842 7.49195 284.639 7.16051C284.44 6.82434 284.156 6.56155 283.786 6.37216C283.422 6.18276 282.991 6.08807 282.494 6.08807C282.02 6.08807 281.577 6.17566 281.166 6.35085C280.758 6.52131 280.427 6.76752 280.171 7.08949C279.916 7.40672 279.778 7.78788 279.759 8.23295H277.636C277.659 7.44697 277.891 6.75568 278.332 6.15909C278.777 5.5625 279.364 5.09612 280.093 4.75994C280.822 4.42377 281.632 4.25568 282.522 4.25568C283.455 4.25568 284.26 4.43797 284.937 4.80256C285.619 5.1624 286.144 5.64299 286.514 6.24432C286.888 6.84564 287.072 7.50379 287.068 8.21875C287.072 9.03314 286.845 9.72443 286.386 10.2926C285.931 10.8608 285.325 11.242 284.568 11.4361V11.5497C285.533 11.6965 286.282 12.08 286.812 12.7003C287.347 13.3205 287.612 14.09 287.607 15.0085C287.612 15.8087 287.39 16.526 286.94 17.1605C286.495 17.795 285.886 18.2945 285.114 18.6591C284.343 19.0189 283.46 19.1989 282.465 19.1989ZM293.495 19.2415C292.804 19.2415 292.179 19.1136 291.62 18.858C291.061 18.5975 290.619 18.2211 290.292 17.7287C289.97 17.2363 289.809 16.6326 289.809 15.9176C289.809 15.3021 289.927 14.7955 290.164 14.3977C290.401 14 290.72 13.6851 291.123 13.4531C291.525 13.2211 291.975 13.0459 292.472 12.9276C292.97 12.8092 293.476 12.7192 293.992 12.6577C294.646 12.5819 295.176 12.5204 295.583 12.473C295.99 12.4209 296.286 12.3381 296.471 12.2244C296.656 12.1108 296.748 11.9261 296.748 11.6705V11.6207C296.748 11.0005 296.573 10.5199 296.222 10.179C295.877 9.83807 295.361 9.66761 294.674 9.66761C293.959 9.66761 293.396 9.82623 292.984 10.1435C292.577 10.456 292.295 10.804 292.139 11.1875L290.143 10.733C290.38 10.0701 290.725 9.53504 291.18 9.12784C291.639 8.71591 292.167 8.41761 292.764 8.23295C293.36 8.04356 293.988 7.94886 294.646 7.94886C295.081 7.94886 295.543 8.00095 296.031 8.10511C296.523 8.20455 296.982 8.3892 297.408 8.65909C297.839 8.92898 298.192 9.31487 298.467 9.81676C298.741 10.3139 298.879 10.9602 298.879 11.7557V19H296.805V17.5085H296.72C296.582 17.7831 296.376 18.053 296.102 18.3182C295.827 18.5833 295.474 18.8035 295.043 18.9787C294.613 19.1539 294.096 19.2415 293.495 19.2415ZM293.957 17.5369C294.544 17.5369 295.046 17.4209 295.462 17.1889C295.884 16.9569 296.203 16.6539 296.421 16.2798C296.644 15.901 296.755 15.4962 296.755 15.0653V13.6591C296.679 13.7348 296.533 13.8059 296.315 13.8722C296.102 13.9337 295.858 13.9882 295.583 14.0355C295.309 14.0781 295.041 14.1184 294.781 14.1562C294.52 14.1894 294.302 14.2178 294.127 14.2415C293.715 14.2936 293.339 14.3812 292.998 14.5043C292.662 14.6274 292.392 14.8049 292.188 15.0369C291.989 15.2642 291.89 15.5672 291.89 15.946C291.89 16.4716 292.084 16.8693 292.472 17.1392C292.861 17.4044 293.355 17.5369 293.957 17.5369ZM301.707 23.0909V8.09091H303.781V9.85938H303.959C304.082 9.6321 304.259 9.36932 304.491 9.07102C304.723 8.77273 305.045 8.51231 305.457 8.28977C305.869 8.0625 306.414 7.94886 307.091 7.94886C307.971 7.94886 308.757 8.1714 309.449 8.61648C310.14 9.06155 310.682 9.70312 311.075 10.5412C311.473 11.3793 311.672 12.3878 311.672 13.5668C311.672 14.7457 311.475 15.7566 311.082 16.5994C310.689 17.4375 310.149 18.0838 309.463 18.5384C308.776 18.9882 307.993 19.2131 307.112 19.2131C306.449 19.2131 305.907 19.1018 305.486 18.8793C305.069 18.6567 304.742 18.3963 304.505 18.098C304.269 17.7997 304.086 17.5346 303.959 17.3026H303.831V23.0909H301.707ZM303.788 13.5455C303.788 14.3125 303.899 14.9848 304.122 15.5625C304.344 16.1402 304.666 16.5923 305.088 16.919C305.509 17.241 306.025 17.402 306.636 17.402C307.271 17.402 307.801 17.2339 308.227 16.8977C308.653 16.5568 308.975 16.0952 309.193 15.5128C309.415 14.9304 309.527 14.2746 309.527 13.5455C309.527 12.8258 309.418 12.1795 309.2 11.6065C308.987 11.0336 308.665 10.5814 308.234 10.25C307.808 9.91856 307.275 9.75284 306.636 9.75284C306.021 9.75284 305.5 9.91146 305.074 10.2287C304.652 10.5459 304.333 10.9886 304.115 11.5568C303.897 12.125 303.788 12.7879 303.788 13.5455ZM318.753 19.2202C317.678 19.2202 316.752 18.9905 315.976 18.5312C315.204 18.0672 314.607 17.4162 314.186 16.5781C313.769 15.7353 313.561 14.7481 313.561 13.6165C313.561 12.4991 313.769 11.5142 314.186 10.6619C314.607 9.80966 315.194 9.14441 315.947 8.66619C316.705 8.18797 317.59 7.94886 318.603 7.94886C319.219 7.94886 319.816 8.05066 320.393 8.25426C320.971 8.45786 321.489 8.77746 321.949 9.21307C322.408 9.64867 322.77 10.2145 323.035 10.9105C323.3 11.6018 323.433 12.4422 323.433 13.4318V14.1847H314.761V12.5938H321.352C321.352 12.035 321.238 11.5402 321.011 11.1094C320.784 10.6738 320.464 10.3305 320.052 10.0795C319.645 9.8286 319.167 9.70312 318.618 9.70312C318.021 9.70312 317.5 9.84991 317.055 10.1435C316.615 10.4323 316.274 10.8111 316.032 11.2798C315.796 11.7438 315.677 12.2481 315.677 12.7926V14.0355C315.677 14.7647 315.805 15.3849 316.061 15.8963C316.321 16.4077 316.683 16.7983 317.147 17.0682C317.611 17.3333 318.154 17.4659 318.774 17.4659C319.176 17.4659 319.543 17.4091 319.875 17.2955C320.206 17.1771 320.493 17.0019 320.734 16.7699C320.976 16.5379 321.16 16.2514 321.288 15.9105L323.298 16.2727C323.137 16.8646 322.848 17.383 322.432 17.8281C322.02 18.2685 321.501 18.6117 320.876 18.858C320.256 19.0994 319.548 19.2202 318.753 19.2202ZM332.764 8.09091V9.9233H327.884V19H325.789V8.09091H332.764ZM337.089 16.0241L341.897 8.09091H344.184V19H342.103V11.0597L337.316 19H335.008V8.09091H337.089V16.0241ZM351.634 19.2202C350.578 19.2202 349.669 18.9811 348.907 18.5028C348.149 18.0199 347.567 17.3546 347.16 16.5071C346.753 15.6596 346.549 14.6889 346.549 13.5952C346.549 12.4872 346.757 11.5095 347.174 10.6619C347.591 9.80966 348.178 9.14441 348.935 8.66619C349.693 8.18797 350.586 7.94886 351.613 7.94886C352.442 7.94886 353.18 8.10275 353.829 8.41051C354.478 8.71354 355.001 9.13968 355.399 9.68892C355.801 10.2382 356.04 10.8797 356.116 11.6136H354.049C353.935 11.1023 353.675 10.6619 353.268 10.2926C352.865 9.9233 352.326 9.73864 351.649 9.73864C351.057 9.73864 350.538 9.89489 350.093 10.2074C349.653 10.5152 349.309 10.9555 349.063 11.5284C348.817 12.0966 348.694 12.7689 348.694 13.5455C348.694 14.3409 348.815 15.0275 349.056 15.6051C349.298 16.1828 349.639 16.6302 350.079 16.9474C350.524 17.2647 351.047 17.4233 351.649 17.4233C352.051 17.4233 352.416 17.3499 352.742 17.2031C353.074 17.0516 353.351 16.8362 353.573 16.5568C353.8 16.2775 353.959 15.9413 354.049 15.5483H356.116C356.04 16.2538 355.81 16.8835 355.427 17.4375C355.043 17.9915 354.53 18.4271 353.886 18.7443C353.247 19.0616 352.496 19.2202 351.634 19.2202ZM357.561 9.9233V8.09091H366.766V9.9233H363.207V19H361.134V9.9233H357.561ZM369.012 23.0909V8.09091H371.086V9.85938H371.263C371.386 9.6321 371.564 9.36932 371.796 9.07102C372.028 8.77273 372.35 8.51231 372.762 8.28977C373.174 8.0625 373.718 7.94886 374.395 7.94886C375.276 7.94886 376.062 8.1714 376.753 8.61648C377.445 9.06155 377.987 9.70312 378.38 10.5412C378.777 11.3793 378.976 12.3878 378.976 13.5668C378.976 14.7457 378.78 15.7566 378.387 16.5994C377.994 17.4375 377.454 18.0838 376.767 18.5384C376.081 18.9882 375.297 19.2131 374.417 19.2131C373.754 19.2131 373.212 19.1018 372.79 18.8793C372.374 18.6567 372.047 18.3963 371.81 18.098C371.573 17.7997 371.391 17.5346 371.263 17.3026H371.135V23.0909H369.012ZM371.093 13.5455C371.093 14.3125 371.204 14.9848 371.427 15.5625C371.649 16.1402 371.971 16.5923 372.392 16.919C372.814 17.241 373.33 17.402 373.941 17.402C374.575 17.402 375.106 17.2339 375.532 16.8977C375.958 16.5568 376.28 16.0952 376.498 15.5128C376.72 14.9304 376.831 14.2746 376.831 13.5455C376.831 12.8258 376.722 12.1795 376.505 11.6065C376.292 11.0336 375.97 10.5814 375.539 10.25C375.113 9.91856 374.58 9.75284 373.941 9.75284C373.325 9.75284 372.804 9.91146 372.378 10.2287C371.957 10.5459 371.637 10.9886 371.419 11.5568C371.202 12.125 371.093 12.7879 371.093 13.5455ZM383.437 16.0241L388.245 8.09091H390.532V19H388.451V11.0597L383.664 19H381.356V8.09091H383.437V16.0241ZM393.387 23.0909V8.09091H395.461V9.85938H395.638C395.761 9.6321 395.939 9.36932 396.171 9.07102C396.403 8.77273 396.725 8.51231 397.137 8.28977C397.549 8.0625 398.093 7.94886 398.77 7.94886C399.651 7.94886 400.437 8.1714 401.128 8.61648C401.82 9.06155 402.362 9.70312 402.755 10.5412C403.152 11.3793 403.351 12.3878 403.351 13.5668C403.351 14.7457 403.155 15.7566 402.762 16.5994C402.369 17.4375 401.829 18.0838 401.142 18.5384C400.456 18.9882 399.672 19.2131 398.792 19.2131C398.129 19.2131 397.587 19.1018 397.165 18.8793C396.749 18.6567 396.422 18.3963 396.185 18.098C395.948 17.7997 395.766 17.5346 395.638 17.3026H395.51V23.0909H393.387ZM395.468 13.5455C395.468 14.3125 395.579 14.9848 395.802 15.5625C396.024 16.1402 396.346 16.5923 396.767 16.919C397.189 17.241 397.705 17.402 398.316 17.402C398.95 17.402 399.481 17.2339 399.907 16.8977C400.333 16.5568 400.655 16.0952 400.873 15.5128C401.095 14.9304 401.206 14.2746 401.206 13.5455C401.206 12.8258 401.097 12.1795 400.88 11.6065C400.667 11.0336 400.345 10.5814 399.914 10.25C399.488 9.91856 398.955 9.75284 398.316 9.75284C397.7 9.75284 397.179 9.91146 396.753 10.2287C396.332 10.5459 396.012 10.9886 395.794 11.5568C395.577 12.125 395.468 12.7879 395.468 13.5455ZM410.326 19.2202C409.303 19.2202 408.41 18.9858 407.648 18.517C406.886 18.0483 406.294 17.3925 405.873 16.5497C405.451 15.7069 405.24 14.7221 405.24 13.5952C405.24 12.4635 405.451 11.474 405.873 10.6264C406.294 9.77888 406.886 9.12074 407.648 8.65199C408.41 8.18324 409.303 7.94886 410.326 7.94886C411.348 7.94886 412.241 8.18324 413.003 8.65199C413.766 9.12074 414.357 9.77888 414.779 10.6264C415.2 11.474 415.411 12.4635 415.411 13.5952C415.411 14.7221 415.2 15.7069 414.779 16.5497C414.357 17.3925 413.766 18.0483 413.003 18.517C412.241 18.9858 411.348 19.2202 410.326 19.2202ZM410.333 17.4375C410.996 17.4375 411.545 17.2623 411.981 16.9119C412.416 16.5616 412.738 16.0952 412.946 15.5128C413.16 14.9304 413.266 14.2888 413.266 13.5881C413.266 12.892 413.16 12.2528 412.946 11.6705C412.738 11.0833 412.416 10.6122 411.981 10.2571C411.545 9.90199 410.996 9.72443 410.333 9.72443C409.665 9.72443 409.111 9.90199 408.671 10.2571C408.235 10.6122 407.911 11.0833 407.698 11.6705C407.49 12.2528 407.385 12.892 407.385 13.5881C407.385 14.2888 407.49 14.9304 407.698 15.5128C407.911 16.0952 408.235 16.5616 408.671 16.9119C409.111 17.2623 409.665 17.4375 410.333 17.4375ZM417.781 19V8.09091H422.305C423.537 8.09091 424.512 8.35369 425.232 8.87926C425.951 9.40009 426.311 10.108 426.311 11.0028C426.311 11.642 426.108 12.1487 425.7 12.5227C425.293 12.8968 424.753 13.1477 424.081 13.2756C424.569 13.3324 425.016 13.4792 425.423 13.7159C425.831 13.9479 426.157 14.2604 426.403 14.6534C426.654 15.0464 426.78 15.5152 426.78 16.0597C426.78 16.6373 426.631 17.1487 426.332 17.5938C426.034 18.0341 425.601 18.3797 425.033 18.6307C424.469 18.8769 423.79 19 422.994 19H417.781ZM419.777 17.2244H422.994C423.52 17.2244 423.932 17.099 424.23 16.848C424.528 16.5971 424.678 16.2562 424.678 15.8253C424.678 15.3187 424.528 14.9209 424.23 14.6321C423.932 14.3385 423.52 14.1918 422.994 14.1918H419.777V17.2244ZM419.777 12.6364H422.327C422.724 12.6364 423.065 12.5795 423.349 12.4659C423.638 12.3523 423.858 12.1913 424.01 11.983C424.166 11.7699 424.244 11.5189 424.244 11.2301C424.244 10.8087 424.072 10.4796 423.726 10.2429C423.38 10.0062 422.907 9.88778 422.305 9.88778H419.777V12.6364ZM432.284 19.2415C431.593 19.2415 430.968 19.1136 430.409 18.858C429.85 18.5975 429.408 18.2211 429.081 17.7287C428.759 17.2363 428.598 16.6326 428.598 15.9176C428.598 15.3021 428.716 14.7955 428.953 14.3977C429.19 14 429.51 13.6851 429.912 13.4531C430.314 13.2211 430.764 13.0459 431.261 12.9276C431.759 12.8092 432.265 12.7192 432.781 12.6577C433.435 12.5819 433.965 12.5204 434.372 12.473C434.779 12.4209 435.075 12.3381 435.26 12.2244C435.445 12.1108 435.537 11.9261 435.537 11.6705V11.6207C435.537 11.0005 435.362 10.5199 435.011 10.179C434.666 9.83807 434.15 9.66761 433.463 9.66761C432.748 9.66761 432.185 9.82623 431.773 10.1435C431.366 10.456 431.084 10.804 430.928 11.1875L428.932 10.733C429.169 10.0701 429.514 9.53504 429.969 9.12784C430.428 8.71591 430.956 8.41761 431.553 8.23295C432.149 8.04356 432.777 7.94886 433.435 7.94886C433.87 7.94886 434.332 8.00095 434.82 8.10511C435.312 8.20455 435.771 8.3892 436.198 8.65909C436.628 8.92898 436.981 9.31487 437.256 9.81676C437.53 10.3139 437.668 10.9602 437.668 11.7557V19H435.594V17.5085H435.509C435.371 17.7831 435.165 18.053 434.891 18.3182C434.616 18.5833 434.263 18.8035 433.832 18.9787C433.402 19.1539 432.885 19.2415 432.284 19.2415ZM432.746 17.5369C433.333 17.5369 433.835 17.4209 434.251 17.1889C434.673 16.9569 434.992 16.6539 435.21 16.2798C435.433 15.901 435.544 15.4962 435.544 15.0653V13.6591C435.468 13.7348 435.322 13.8059 435.104 13.8722C434.891 13.9337 434.647 13.9882 434.372 14.0355C434.098 14.0781 433.83 14.1184 433.57 14.1562C433.309 14.1894 433.091 14.2178 432.916 14.2415C432.504 14.2936 432.128 14.3812 431.787 14.5043C431.451 14.6274 431.181 14.8049 430.977 15.0369C430.778 15.2642 430.679 15.5672 430.679 15.946C430.679 16.4716 430.873 16.8693 431.261 17.1392C431.65 17.4044 432.144 17.5369 432.746 17.5369ZM439.143 9.9233V8.09091H448.348V9.9233H444.789V19H442.716V9.9233H439.143ZM452.192 11.8409H455.359C456.695 11.8409 457.722 12.1723 458.442 12.8352C459.162 13.4981 459.521 14.3527 459.521 15.3991C459.521 16.081 459.36 16.6941 459.038 17.2386C458.716 17.7831 458.245 18.214 457.625 18.5312C457.005 18.8438 456.25 19 455.359 19H450.594V8.09091H452.675V17.1676H455.359C455.97 17.1676 456.472 17.009 456.865 16.6918C457.258 16.3698 457.455 15.9602 457.455 15.4631C457.455 14.9375 457.258 14.509 456.865 14.1776C456.472 13.8414 455.97 13.6733 455.359 13.6733H452.192V11.8409ZM466.498 19.2202C465.442 19.2202 464.533 18.9811 463.77 18.5028C463.013 18.0199 462.43 17.3546 462.023 16.5071C461.616 15.6596 461.412 14.6889 461.412 13.5952C461.412 12.4872 461.621 11.5095 462.037 10.6619C462.454 9.80966 463.041 9.14441 463.799 8.66619C464.556 8.18797 465.449 7.94886 466.476 7.94886C467.305 7.94886 468.044 8.10275 468.692 8.41051C469.341 8.71354 469.864 9.13968 470.262 9.68892C470.664 10.2382 470.903 10.8797 470.979 11.6136H468.912C468.799 11.1023 468.538 10.6619 468.131 10.2926C467.729 9.9233 467.189 9.73864 466.512 9.73864C465.92 9.73864 465.401 9.89489 464.956 10.2074C464.516 10.5152 464.173 10.9555 463.927 11.5284C463.68 12.0966 463.557 12.7689 463.557 13.5455C463.557 14.3409 463.678 15.0275 463.919 15.6051C464.161 16.1828 464.502 16.6302 464.942 16.9474C465.387 17.2647 465.91 17.4233 466.512 17.4233C466.914 17.4233 467.279 17.3499 467.606 17.2031C467.937 17.0516 468.214 16.8362 468.437 16.5568C468.664 16.2775 468.822 15.9413 468.912 15.5483H470.979C470.903 16.2538 470.674 16.8835 470.29 17.4375C469.907 17.9915 469.393 18.4271 468.749 18.7443C468.11 19.0616 467.359 19.2202 466.498 19.2202ZM479.756 19V9.90199H477.142C476.522 9.90199 476.039 10.0464 475.693 10.3352C475.348 10.6241 475.175 11.0028 475.175 11.4716C475.175 11.9356 475.333 12.3097 475.651 12.5938C475.973 12.8731 476.422 13.0128 477 13.0128H480.374V14.7315H477C476.195 14.7315 475.499 14.599 474.912 14.3338C474.33 14.0639 473.88 13.6828 473.563 13.1903C473.25 12.6979 473.094 12.1155 473.094 11.4432C473.094 10.7566 473.255 10.1648 473.577 9.66761C473.903 9.16572 474.37 8.77746 474.976 8.50284C475.587 8.22822 476.309 8.09091 477.142 8.09091H481.751V19H479.756ZM472.597 19L475.672 13.4886H477.845L474.77 19H472.597ZM494.466 19.2202C493.41 19.2202 492.501 18.9811 491.739 18.5028C490.981 18.0199 490.399 17.3546 489.992 16.5071C489.585 15.6596 489.381 14.6889 489.381 13.5952C489.381 12.4872 489.589 11.5095 490.006 10.6619C490.423 9.80966 491.01 9.14441 491.767 8.66619C492.525 8.18797 493.418 7.94886 494.445 7.94886C495.274 7.94886 496.012 8.10275 496.661 8.41051C497.31 8.71354 497.833 9.13968 498.231 9.68892C498.633 10.2382 498.872 10.8797 498.948 11.6136H496.881C496.767 11.1023 496.507 10.6619 496.1 10.2926C495.697 9.9233 495.158 9.73864 494.481 9.73864C493.889 9.73864 493.37 9.89489 492.925 10.2074C492.485 10.5152 492.142 10.9555 491.895 11.5284C491.649 12.0966 491.526 12.7689 491.526 13.5455C491.526 14.3409 491.647 15.0275 491.888 15.6051C492.13 16.1828 492.471 16.6302 492.911 16.9474C493.356 17.2647 493.879 17.4233 494.481 17.4233C494.883 17.4233 495.248 17.3499 495.574 17.2031C495.906 17.0516 496.183 16.8362 496.405 16.5568C496.633 16.2775 496.791 15.9413 496.881 15.5483H498.948C498.872 16.2538 498.642 16.8835 498.259 17.4375C497.875 17.9915 497.362 18.4271 496.718 18.7443C496.079 19.0616 495.328 19.2202 494.466 19.2202ZM506.512 19V8.09091H515.411V19H513.33V9.9233H508.579V19H506.512ZM522.845 19.2202C521.823 19.2202 520.93 18.9858 520.168 18.517C519.405 18.0483 518.814 17.3925 518.392 16.5497C517.971 15.7069 517.76 14.7221 517.76 13.5952C517.76 12.4635 517.971 11.474 518.392 10.6264C518.814 9.77888 519.405 9.12074 520.168 8.65199C520.93 8.18324 521.823 7.94886 522.845 7.94886C523.868 7.94886 524.76 8.18324 525.523 8.65199C526.285 9.12074 526.877 9.77888 527.298 10.6264C527.72 11.474 527.93 12.4635 527.93 13.5952C527.93 14.7221 527.72 15.7069 527.298 16.5497C526.877 17.3925 526.285 18.0483 525.523 18.517C524.76 18.9858 523.868 19.2202 522.845 19.2202ZM522.852 17.4375C523.515 17.4375 524.064 17.2623 524.5 16.9119C524.936 16.5616 525.258 16.0952 525.466 15.5128C525.679 14.9304 525.786 14.2888 525.786 13.5881C525.786 12.892 525.679 12.2528 525.466 11.6705C525.258 11.0833 524.936 10.6122 524.5 10.2571C524.064 9.90199 523.515 9.72443 522.852 9.72443C522.185 9.72443 521.631 9.90199 521.19 10.2571C520.755 10.6122 520.43 11.0833 520.217 11.6705C520.009 12.2528 519.905 12.892 519.905 13.5881C519.905 14.2888 520.009 14.9304 520.217 15.5128C520.43 16.0952 520.755 16.5616 521.19 16.9119C521.631 17.2623 522.185 17.4375 522.852 17.4375ZM536.423 16.3722L539.946 8.09091H541.778L537.211 19H535.635L531.16 8.09091H532.971L536.423 16.3722ZM532.382 8.09091V19H530.301V8.09091H532.382ZM540.521 19V8.09091H542.588V19H540.521ZM550.013 19.2202C548.99 19.2202 548.098 18.9858 547.336 18.517C546.573 18.0483 545.981 17.3925 545.56 16.5497C545.139 15.7069 544.928 14.7221 544.928 13.5952C544.928 12.4635 545.139 11.474 545.56 10.6264C545.981 9.77888 546.573 9.12074 547.336 8.65199C548.098 8.18324 548.99 7.94886 550.013 7.94886C551.036 7.94886 551.928 8.18324 552.691 8.65199C553.453 9.12074 554.045 9.77888 554.466 10.6264C554.888 11.474 555.098 12.4635 555.098 13.5952C555.098 14.7221 554.888 15.7069 554.466 16.5497C554.045 17.3925 553.453 18.0483 552.691 18.517C551.928 18.9858 551.036 19.2202 550.013 19.2202ZM550.02 17.4375C550.683 17.4375 551.232 17.2623 551.668 16.9119C552.104 16.5616 552.426 16.0952 552.634 15.5128C552.847 14.9304 552.954 14.2888 552.954 13.5881C552.954 12.892 552.847 12.2528 552.634 11.6705C552.426 11.0833 552.104 10.6122 551.668 10.2571C551.232 9.90199 550.683 9.72443 550.02 9.72443C549.353 9.72443 548.799 9.90199 548.358 10.2571C547.923 10.6122 547.598 11.0833 547.385 11.6705C547.177 12.2528 547.073 12.892 547.073 13.5881C547.073 14.2888 547.177 14.9304 547.385 15.5128C547.598 16.0952 547.923 16.5616 548.358 16.9119C548.799 17.2623 549.353 17.4375 550.02 17.4375ZM573.101 17.1676L572.902 22.125H570.821V19H569.465V17.1676H573.101ZM557.469 8.09091H559.55V17.1605H563.321V8.09091H565.402V17.1605H569.173V8.09091H571.254V19H557.469V8.09091ZM576.938 11.8409H580.106C581.441 11.8409 582.468 12.1723 583.188 12.8352C583.908 13.4981 584.267 14.3527 584.267 15.3991C584.267 16.081 584.106 16.6941 583.785 17.2386C583.463 17.7831 582.991 18.214 582.371 18.5312C581.751 18.8438 580.996 19 580.106 19H575.34V8.09091H577.421V17.1676H580.106C580.716 17.1676 581.218 17.009 581.611 16.6918C582.004 16.3698 582.201 15.9602 582.201 15.4631C582.201 14.9375 582.004 14.509 581.611 14.1776C581.218 13.8414 580.716 13.6733 580.106 13.6733H576.938V11.8409ZM592.139 12.7074V14.554H586.322V12.7074H592.139ZM588.048 8.09091V19H585.924V8.09091H588.048ZM595.462 19.2202C594.449 19.2202 593.564 18.9834 592.806 18.5099C592.049 18.0365 591.461 17.3783 591.045 16.5355C590.628 15.688 590.42 14.7055 590.42 13.5881C590.42 12.4612 590.628 11.4763 591.045 10.6335C591.461 9.78598 592.049 9.12784 592.806 8.65909C593.564 8.18561 594.449 7.94886 595.462 7.94886C596.48 7.94886 597.366 8.18561 598.119 8.65909C598.876 9.12784 599.463 9.78598 599.88 10.6335C600.301 11.4763 600.512 12.4612 600.512 13.5881C600.512 14.7055 600.301 15.688 599.88 16.5355C599.463 17.3783 598.876 18.0365 598.119 18.5099C597.366 18.9834 596.48 19.2202 595.462 19.2202ZM595.462 17.402C596.149 17.402 596.71 17.2292 597.146 16.8835C597.586 16.5331 597.91 16.0691 598.119 15.4915C598.327 14.9138 598.431 14.2794 598.431 13.5881C598.431 12.892 598.327 12.2552 598.119 11.6776C597.91 11.0952 597.586 10.6288 597.146 10.2784C596.71 9.92803 596.149 9.75284 595.462 9.75284C594.781 9.75284 594.22 9.92803 593.779 10.2784C593.339 10.6288 593.015 11.0952 592.806 11.6776C592.598 12.2552 592.494 12.892 592.494 13.5881C592.494 14.2794 592.598 14.9138 592.806 15.4915C593.015 16.0691 593.339 16.5331 593.779 16.8835C594.22 17.2292 594.781 17.402 595.462 17.402ZM604.415 19.1349C604.027 19.1349 603.693 18.9976 603.413 18.723C603.134 18.4437 602.994 18.1075 602.994 17.7145C602.994 17.3262 603.134 16.9948 603.413 16.7202C603.693 16.4408 604.027 16.3011 604.415 16.3011C604.803 16.3011 605.137 16.4408 605.416 16.7202C605.696 16.9948 605.835 17.3262 605.835 17.7145C605.835 17.9749 605.769 18.214 605.636 18.4318C605.509 18.6449 605.338 18.8153 605.125 18.9432C604.912 19.071 604.675 19.1349 604.415 19.1349ZM604.415 11.1946C604.027 11.1946 603.693 11.0549 603.413 10.7756C603.134 10.4962 602.994 10.1624 602.994 9.77415C602.994 9.38589 603.134 9.05445 603.413 8.77983C603.693 8.50047 604.027 8.3608 604.415 8.3608C604.803 8.3608 605.137 8.50047 605.416 8.77983C605.696 9.05445 605.835 9.38589 605.835 9.77415C605.835 10.0346 605.769 10.2737 605.636 10.4915C605.509 10.7045 605.338 10.875 605.125 11.0028C604.912 11.1307 604.675 11.1946 604.415 11.1946Z" fill="#213A57"/>
<path d="M644.002 14L884.002 14" stroke="#213A57"/>
<path d="M0.00219727 13L240.002 14" stroke="#213A57"/>
</svg>
