<svg width="110" height="50" viewBox="0 0 110 50" fill="none" xmlns="http://www.w3.org/2000/svg">
<rect width="50" height="50" rx="25" fill="#213A57"/>
<rect x="12" y="13" width="26" height="24" rx="5" fill="white"/>
<path d="M35 25.0611C35 19.5045 30.5228 15 25 15C19.4772 15 15 19.5045 15 25.0611C15 30.0829 18.6569 34.2453 23.4375 35V27.9694H20.8984V25.0611H23.4375V22.8445C23.4375 20.323 24.9305 18.9301 27.2146 18.9301C28.3088 18.9301 29.4531 19.1266 29.4531 19.1266V21.6026H28.1922C26.9498 21.6026 26.5625 22.3782 26.5625 23.1739V25.0611H29.3359L28.8926 27.9694H26.5625V35C31.3431 34.2453 35 30.0829 35 25.0611Z" fill="#1877F2"/>
<rect x="60" width="50" height="50" rx="25" fill="#3A36B4"/>
<rect x="72" y="13" width="26" height="24" rx="5" fill="white"/>
<path d="M93.1711 23.3677H92.4999V23.3332H84.9999V26.6665H89.7095C89.0224 28.6069 87.1761 29.9998 84.9999 29.9998C82.2386 29.9998 79.9999 27.7611 79.9999 24.9998C79.9999 22.2386 82.2386 19.9998 84.9999 19.9998C86.2745 19.9998 87.434 20.4807 88.317 21.2661L90.674 18.909C89.1857 17.5219 87.1949 16.6665 84.9999 16.6665C80.3978 16.6665 76.6665 20.3977 76.6665 24.9998C76.6665 29.6019 80.3978 33.3332 84.9999 33.3332C89.602 33.3332 93.3332 29.6019 93.3332 24.9998C93.3332 24.4411 93.2757 23.8957 93.1711 23.3677Z" fill="#FFC107"/>
<path d="M77.6275 21.1211L80.3654 23.129C81.1062 21.2948 82.9004 19.9998 85 19.9998C86.2746 19.9998 87.4342 20.4807 88.3171 21.2661L90.6742 18.909C89.1858 17.5219 87.195 16.6665 85 16.6665C81.7992 16.6665 79.0233 18.4736 77.6275 21.1211Z" fill="#FF3D00"/>
<path d="M85.0001 33.3332C87.1526 33.3332 89.1085 32.5094 90.5872 31.1698L88.0081 28.9873C87.1433 29.645 86.0866 30.0007 85.0001 29.9998C82.8326 29.9998 80.9922 28.6177 80.2989 26.689L77.5814 28.7827C78.9606 31.4815 81.7614 33.3332 85.0001 33.3332Z" fill="#4CAF50"/>
<path d="M93.1714 23.3679H92.5002V23.3333H85.0002V26.6667H89.7097C89.3811 27.5902 88.7891 28.3971 88.0068 28.9879L88.0081 28.9871L90.5872 31.1696C90.4047 31.3354 93.3335 29.1667 93.3335 25C93.3335 24.4412 93.276 23.8958 93.1714 23.3679Z" fill="#1976D2"/>
</svg>
